<svg width="166" height="39" viewBox="0 0 166 39" fill="none" xmlns="http://www.w3.org/2000/svg">
<path d="M50.056 12.248V14.96H45.592V29H42.232V14.96H37.768V12.248H50.056ZM67.5916 12.248L61.4476 29H57.3676L51.2236 12.248H54.8236L59.4316 25.568L64.0156 12.248H67.5916ZM79.0981 29L73.0021 21.536V29H69.6421V12.248H73.0021V19.76L79.0981 12.248H83.1541L76.2421 20.552L83.3461 29H79.0981Z" fill="#F34E3A"/>
<path d="M102.747 12.248V14.96H98.2829V29H94.9229V14.96H90.4589V12.248H102.747ZM108.594 17.768C109.026 17.064 109.586 16.512 110.274 16.112C110.978 15.712 111.778 15.512 112.674 15.512V19.04H111.786C110.73 19.04 109.93 19.288 109.386 19.784C108.858 20.28 108.594 21.144 108.594 22.376V29H105.234V15.704H108.594V17.768ZM114.11 22.304C114.11 20.96 114.374 19.768 114.902 18.728C115.446 17.688 116.174 16.888 117.086 16.328C118.014 15.768 119.046 15.488 120.182 15.488C121.174 15.488 122.038 15.688 122.774 16.088C123.526 16.488 124.126 16.992 124.574 17.6V15.704H127.958V29H124.574V27.056C124.142 27.68 123.542 28.2 122.774 28.616C122.022 29.016 121.15 29.216 120.158 29.216C119.038 29.216 118.014 28.928 117.086 28.352C116.174 27.776 115.446 26.968 114.902 25.928C114.374 24.872 114.11 23.664 114.11 22.304ZM124.574 22.352C124.574 21.536 124.414 20.84 124.094 20.264C123.774 19.672 123.342 19.224 122.798 18.92C122.254 18.6 121.67 18.44 121.046 18.44C120.422 18.44 119.846 18.592 119.318 18.896C118.79 19.2 118.358 19.648 118.022 20.24C117.702 20.816 117.542 21.504 117.542 22.304C117.542 23.104 117.702 23.808 118.022 24.416C118.358 25.008 118.79 25.464 119.318 25.784C119.862 26.104 120.438 26.264 121.046 26.264C121.67 26.264 122.254 26.112 122.798 25.808C123.342 25.488 123.774 25.04 124.094 24.464C124.414 23.872 124.574 23.168 124.574 22.352ZM136.819 25.904L140.179 15.704H143.755L138.835 29H134.755L129.859 15.704H133.459L136.819 25.904ZM158.038 22.064C158.038 22.544 158.006 22.976 157.942 23.36H148.222C148.302 24.32 148.638 25.072 149.23 25.616C149.822 26.16 150.55 26.432 151.414 26.432C152.662 26.432 153.55 25.896 154.078 24.824H157.702C157.318 26.104 156.582 27.16 155.494 27.992C154.406 28.808 153.07 29.216 151.486 29.216C150.206 29.216 149.054 28.936 148.03 28.376C147.022 27.8 146.23 26.992 145.654 25.952C145.094 24.912 144.814 23.712 144.814 22.352C144.814 20.976 145.094 19.768 145.654 18.728C146.214 17.688 146.998 16.888 148.006 16.328C149.014 15.768 150.174 15.488 151.486 15.488C152.75 15.488 153.878 15.76 154.87 16.304C155.878 16.848 156.654 17.624 157.198 18.632C157.758 19.624 158.038 20.768 158.038 22.064ZM154.558 21.104C154.542 20.24 154.23 19.552 153.622 19.04C153.014 18.512 152.27 18.248 151.39 18.248C150.558 18.248 149.854 18.504 149.278 19.016C148.718 19.512 148.374 20.208 148.246 21.104H154.558ZM163.887 11.24V29H160.527V11.24H163.887Z" fill="#05073C"/>
<path d="M17.2709 32.7906C24.8538 32.7906 31.0009 26.6088 31.0009 18.9832C31.0009 11.3576 24.8538 5.17578 17.2709 5.17578C9.68811 5.17578 3.54102 11.3576 3.54102 18.9832C3.54102 26.6088 9.68811 32.7906 17.2709 32.7906Z" fill="#05073C"/>
<path d="M9.86567 30.1118C9.86261 30.1171 9.85853 30.1202 9.85547 30.1254C9.87587 30.1317 9.89525 30.1412 9.91565 30.1464L9.86567 30.1118Z" fill="#E8EFF3"/>
<path d="M10.2569 10.6337L10.2324 10.5763C10.464 10.5568 10.4895 10.3958 10.667 10.3475C10.869 10.2952 10.7965 10.3619 10.9924 10.3681C11.1505 10.3722 11.2392 10.4932 11.4249 10.4214C11.377 10.4963 11.3015 10.5445 11.227 10.5937C11.0709 10.6902 10.9128 10.7897 10.7333 10.8184C10.5548 10.8471 10.3497 10.7897 10.2569 10.6337Z" fill="#E8EFF3"/>
<path d="M12.2055 23.0947C12.1942 23.2157 12.1167 23.3173 12.0484 23.4157C11.7434 23.8497 11.5424 24.3626 11.472 24.8899C11.4027 25.3956 11.3843 26.0235 10.9283 26.244C10.6682 26.3681 10.3163 26.3199 10.1337 26.5466C10.0765 26.6154 10.0459 26.7036 10.0153 26.7867C9.8817 27.1755 9.74806 27.5643 9.61341 27.9531C9.47468 27.9315 9.33289 27.9069 9.19517 27.8823C9.35635 27.9459 9.45632 28.1777 9.34717 28.3244C9.19415 28.2301 8.97993 28.3162 8.88303 28.4701C8.78918 28.624 8.78918 28.8179 8.82488 28.9953C8.93403 29.5216 9.34819 29.9678 9.85721 30.1258C9.75622 30.291 9.48488 30.1987 9.32575 30.0725C8.17814 29.1779 7.35289 27.8761 7.03054 26.4533C6.91629 25.9516 6.85712 25.4213 6.59904 24.9791C6.38278 24.6057 6.04003 24.3205 5.82479 23.9461C5.52284 23.4137 5.50346 22.7418 5.14643 22.2463C4.94649 21.9642 4.63332 21.6123 4.84346 21.3384C4.92813 21.2245 5.10053 21.123 5.0434 20.9947C5.02402 20.9527 4.98219 20.925 4.95057 20.888C4.82918 20.7393 4.93323 20.5239 5.00974 20.3474C5.13827 20.0397 5.15969 19.7032 5.13521 19.3636C4.82816 19.0497 4.59456 18.6681 4.45991 18.2496C4.37932 17.9941 4.27221 17.6741 4.00597 17.6535C3.94986 17.4556 3.8907 17.2586 3.83561 17.0606C3.80603 17.1273 3.73564 17.1673 3.66016 17.1714C4.07023 14.0272 5.5208 11.2451 7.63341 9.15336C7.67626 9.13694 7.72114 9.11437 7.76603 9.09181C8.25159 8.84765 8.64942 8.45988 9.12173 8.19008C9.21864 8.13366 9.32779 8.08134 9.44204 8.10084C9.55323 8.11725 9.65115 8.23933 9.60423 8.34294C9.58587 8.38602 9.5471 8.41782 9.50732 8.44347C8.94831 8.86202 8.3434 9.22004 7.70584 9.50728C7.62933 9.5401 7.54875 9.57806 7.50998 9.65089C7.4396 9.77502 7.53446 9.94121 7.66504 9.9966C7.79561 10.052 7.94556 10.0335 8.08429 10.011C7.95882 10.1689 7.91088 10.3875 7.9578 10.5854C8.08429 10.606 8.1353 10.4336 8.18018 10.3146C8.36584 9.8417 9.14417 9.69501 9.12683 9.18311C9.32779 9.30621 9.55425 9.07642 9.694 8.88458C9.83375 8.6907 10.1286 8.50912 10.2724 8.69685C10.2755 8.79739 10.2816 8.89792 10.2846 8.99845C10.5621 8.94716 10.8426 8.89382 11.1191 8.84252C10.9569 8.94203 10.8895 9.17182 10.9681 9.34622C11.0466 9.52061 11.2649 9.61909 11.4455 9.56164C11.4333 9.70834 11.2955 9.81195 11.1721 9.89094C10.8569 10.0992 10.5193 10.3126 10.1622 10.4018L10.2316 10.5752C10.2224 10.5772 10.2122 10.5803 10.203 10.5793C9.9786 10.5865 9.75316 10.409 9.51242 10.4254C9.36553 10.4346 9.18599 10.4234 9.09214 10.567C9.07888 10.5844 9.00952 10.8429 9.04726 10.8234C9.18191 10.7568 9.31758 10.6911 9.44918 10.6244C9.48284 10.7332 9.48488 10.8522 9.4553 10.966C9.61443 10.9609 9.77663 11.006 9.91026 11.0984C9.74296 11.4287 9.35329 11.6318 8.98605 11.5805C8.99014 11.4677 8.99116 11.3559 8.99524 11.243C8.69329 11.1989 8.42806 11.4441 8.25975 11.6964C8.08837 11.9508 7.95066 12.2463 7.68544 12.3981C7.52324 12.4945 7.33147 12.5222 7.15907 12.5992C6.98872 12.6792 6.82652 12.8403 6.84794 13.027C6.85814 13.1152 6.90813 13.2003 6.89997 13.2906C6.87957 13.4578 6.67963 13.5235 6.54191 13.624C6.30627 13.7964 6.22875 14.1359 5.97984 14.2857C5.79827 14.3965 5.56977 14.378 5.36371 14.4272C5.15867 14.4765 4.94343 14.6663 5.01178 14.8673C4.91079 14.895 4.7945 14.813 4.79144 14.7063C4.38952 15.3874 4.10492 16.1394 3.95904 16.918C4.12736 17.0544 4.32526 16.7826 4.3732 16.5692C4.4242 16.3569 4.62822 16.0881 4.79348 16.2266C4.73329 16.5323 4.67311 16.8359 4.61394 17.1416C4.60068 17.2001 4.59048 17.2627 4.61496 17.3171C4.64454 17.3848 4.71697 17.4176 4.77002 17.4679C4.91895 17.6156 4.88223 17.8567 4.87815 18.0659C4.871 18.3224 4.93935 18.5768 5.05768 18.8035C5.0485 18.7594 5.04136 18.7143 5.03524 18.6702C5.27496 18.7174 5.531 18.6558 5.7238 18.505C5.82581 18.424 5.91354 18.3173 6.03697 18.2814C6.16346 18.2424 6.29811 18.2855 6.42256 18.3286C6.80918 18.4629 7.22028 18.6117 7.46306 18.941C7.58649 19.1082 7.65688 19.3134 7.80683 19.4549C8.14652 19.7832 8.76265 19.6888 9.0697 20.0499C9.31554 20.3413 9.23802 20.7803 9.14213 21.1537C8.96871 21.043 8.71063 21.2758 8.8055 21.4605C8.90853 21.361 9.02686 21.2553 9.16661 21.2645C9.30942 21.2707 9.42061 21.4748 9.30942 21.559C9.57771 21.2574 10.1765 21.4276 10.2479 21.8298C10.5937 21.877 10.9426 21.9252 11.2874 21.9754C11.1956 22.4812 12.2595 22.5817 12.2055 23.0947Z" fill="#E8EFF3"/>
<path d="M11.0212 8.53726C10.8824 8.59471 10.7039 8.50751 10.6631 8.36287C10.6223 8.21822 10.7284 8.04896 10.8763 8.02536C10.9701 8.00998 11.0966 8.02844 11.1303 7.93919C11.1405 7.91252 11.1374 7.88174 11.1395 7.85302C11.1466 7.68273 11.3078 7.55142 11.4751 7.51962C11.6424 7.48782 11.8127 7.53193 11.977 7.57604C12.028 7.70222 12.0361 7.84687 11.9994 7.97817C11.8852 7.97612 11.7709 7.97305 11.6556 7.97099C11.6536 8.1618 11.6199 8.40082 11.4394 8.4593C11.2782 8.51162 11.0803 8.38133 10.9416 8.47981" fill="#E8EFF3"/>
<path d="M12.9238 6.7493C13.2452 6.62004 13.5236 6.40051 13.8409 6.26202C14.3866 6.02402 15.0048 6.03941 15.5995 6.05993C16.9532 6.10609 18.3069 6.15123 19.6605 6.19739C19.3361 6.34922 19.0117 6.50207 18.6874 6.6539C18.4221 6.77802 18.1222 6.90523 17.8468 6.80675C17.8254 7.03346 18.0182 7.2571 18.2436 7.26941C17.6662 7.57819 16.9185 7.17503 16.3146 7.42636C16.0616 7.53202 15.8484 7.74848 15.5761 7.77413C15.418 7.78849 15.2588 7.73617 15.1017 7.76079C14.8385 7.8008 14.659 8.03777 14.455 8.21011C14.2193 8.40913 13.8858 8.53326 13.6032 8.4122C13.3206 8.29115 13.1972 7.84901 13.4431 7.66231C13.5634 7.56998 13.7277 7.56485 13.8664 7.50433C14.0051 7.4438 14.1235 7.2653 14.0296 7.14528C13.9888 7.09296 13.9184 7.06937 13.8807 7.015C13.8409 6.9555 13.8501 6.87445 13.8184 6.80983C13.6971 6.55849 13.2941 6.86009 13.0411 6.7452" fill="#E8EFF3"/>
<path d="M16.9492 8.16366C17.1349 8.13288 17.3001 8.0344 17.4756 7.96669C17.651 7.89898 17.8571 7.86513 18.0193 7.95951C18.0611 8.08774 17.9101 8.19238 17.7816 8.22931C17.5347 8.29907 17.2695 8.30523 17.0196 8.24675" fill="#E8EFF3"/>
<path d="M27.9064 10.2544C27.8564 10.2575 27.8034 10.2513 27.7524 10.2349C27.5228 10.1703 27.3576 9.97741 27.1679 9.83379C26.7282 9.49833 26.1049 9.41729 25.5928 9.63477C25.7214 9.47064 25.7938 9.26239 25.7948 9.05311L25.7224 9.07363C24.941 8.54737 24.0209 7.99341 23.114 8.25398C22.9049 8.31553 22.7111 8.41606 22.4989 8.47454C22.2734 8.53814 22.0266 8.55353 21.8287 8.67868C21.6277 8.80383 21.5063 9.09928 21.6594 9.2747C21.7899 9.42447 22.0154 9.40088 22.2092 9.43268C22.3999 9.46345 22.608 9.6717 22.4917 9.82968C21.6165 10.1733 20.7392 10.5211 19.864 10.8678C20.2465 11.0207 20.475 11.4834 20.3659 11.8834C20.0772 11.9152 19.813 11.7224 19.5263 11.6854C19.1091 11.6362 18.6858 11.9819 18.6491 12.4015C18.6093 12.8221 18.9694 13.2365 19.3876 13.257C19.7008 13.2745 20.0201 13.1042 20.319 13.2047C20.3496 12.9185 20.5607 12.6887 20.7749 12.4959C21.1901 12.1286 21.7716 11.8085 22.2796 12.0363C22.4458 12.1091 22.5846 12.2343 22.7192 12.3584C23.0161 12.6282 23.3129 12.9011 23.6098 13.174C23.7159 13.0775 23.8209 12.9811 23.927 12.8877C24.0862 13.0796 24.2453 13.2714 24.4065 13.4663C24.4973 13.413 24.5911 13.3627 24.6809 13.3083C24.7329 13.4745 24.787 13.6376 24.839 13.8038C24.8757 13.6274 24.9083 13.455 24.941 13.2817C25.145 13.3012 25.3613 13.3217 25.5541 13.2396C25.7458 13.1616 25.8968 12.9452 25.8315 12.7472C25.7979 12.6415 25.7071 12.5543 25.6948 12.4446C25.6683 12.224 25.9876 12.0937 26.1835 12.2076C26.3752 12.3174 26.4599 12.5513 26.5303 12.7657C26.5905 12.5564 26.6476 12.3502 26.7068 12.1419C26.869 12.6662 27.1179 13.1637 27.4382 13.6069C26.8108 13.4437 26.1365 13.4694 25.5255 13.6776C25.6979 13.9577 26.0131 14.1383 26.3385 14.1465C26.4844 14.1526 26.6476 14.129 26.7537 14.2296C26.8333 14.3065 26.8475 14.4234 26.8557 14.5301C26.8863 14.8328 26.9169 15.1323 26.9445 15.4308C26.6272 15.1313 26.1416 15.1313 25.705 15.0943C25.2684 15.0533 24.7655 14.8994 24.6299 14.4799C24.4432 14.6655 24.3483 14.9405 24.381 15.2051C23.9352 15.0666 23.4262 14.8584 23.3241 14.4009C22.962 14.5086 22.5366 14.2531 22.4642 13.8818C22.4387 13.7515 22.4387 13.5956 22.3316 13.5197C22.2663 13.4745 22.1786 13.4756 22.098 13.4797C21.4207 13.5145 20.7464 13.5453 20.0721 13.5802C19.7038 13.6007 19.3223 13.6192 18.9887 13.7792C18.6552 13.9362 18.3757 14.2685 18.3889 14.6389C17.7483 14.9671 17.1903 15.4657 16.7976 16.0699C16.6731 16.2556 16.563 16.471 16.5925 16.6916C16.613 16.8619 16.715 17.0127 16.7384 17.1799C16.7792 17.4671 16.6007 17.7308 16.514 18.0078C16.2712 18.7936 16.8241 19.5835 17.3433 20.2246C17.5892 20.5221 17.8728 20.8473 18.2563 20.8873C18.494 20.9119 18.7276 20.8206 18.9561 20.7478C19.611 20.5365 20.3128 20.4667 20.9953 20.5385C20.8321 20.6503 20.9769 20.9253 21.1666 20.9786C21.3564 21.032 21.5675 20.9827 21.7501 21.0597C22.1653 21.2402 22.0664 21.8629 21.8481 22.2589C21.945 22.2466 22.046 22.2343 22.1459 22.2219C22.0847 22.3553 22.0235 22.4897 21.9613 22.62C22.5387 22.7328 22.71 23.5166 22.5366 24.0839C22.3663 24.6522 21.9919 25.16 21.945 25.7509C21.9215 26.075 22.0001 26.3961 22.0796 26.7111C22.2775 27.5092 22.4754 28.3083 22.6733 29.1095C23.3619 29.2388 23.8189 28.376 24.4809 28.1401C24.7298 28.0498 25.0155 28.0467 25.2164 27.8775C25.4102 27.7143 25.3776 27.303 25.1419 27.2876C25.4633 27.2743 25.755 26.9983 25.7846 26.6752C25.7938 26.5849 25.7866 26.4936 25.805 26.4043C25.8346 26.2782 25.9223 26.1704 26.007 26.0668C26.5456 25.3877 26.9169 24.5947 27.2872 23.812C27.3851 23.6027 27.482 23.3955 27.5789 23.1862C27.9462 22.4056 28.3104 21.628 28.6776 20.8473C28.8214 20.5406 28.9653 20.2369 29.1101 19.9302C28.9214 20.2031 28.4777 20.1364 28.2369 19.9087C27.9931 19.6799 27.8809 19.3506 27.6963 19.0726C27.5402 18.8336 27.3239 18.6171 27.2607 18.334C27.224 18.1719 27.2444 18.0016 27.227 17.8344C27.1883 17.4723 26.972 17.1573 26.8312 16.8229C26.6904 16.4885 26.6343 16.0617 26.8781 15.7929C27.4555 16.9788 27.9727 18.1955 28.4317 19.4368C28.5021 19.2531 28.649 19.1003 28.8286 19.0213C28.9602 18.9608 29.104 18.9423 29.2417 18.8941C29.6049 18.7607 29.8742 18.3996 29.8986 18.0129C29.9201 17.6261 29.6997 17.2332 29.3529 17.0578C29.1815 16.9716 28.9816 16.9337 28.8204 16.8198C28.6592 16.709 28.5531 16.4741 28.6694 16.3151C28.7786 16.1653 29.0173 16.1838 29.1754 16.2823C29.3335 16.3838 29.4447 16.5439 29.5936 16.6567C29.7007 16.7388 29.8272 16.7973 29.9435 16.8732C30.5739 17.2927 30.68 18.1606 30.7688 18.9177C30.8177 19.3249 30.8759 19.7291 30.9493 20.1282C30.9575 20.0441 30.9636 19.9569 30.9687 19.8727C31.2044 16.2453 30.0241 12.8611 27.9064 10.2544ZM28.8683 14.8646C28.7786 14.8522 28.699 14.7876 28.6317 14.7271C28.5195 14.6255 28.4093 14.5096 28.3848 14.3609C28.3552 14.1834 28.4521 13.9895 28.3695 13.8274C28.3308 13.7495 28.2563 13.6982 28.1951 13.6407C28.0329 13.493 27.9217 13.2878 27.8891 13.0734C27.8605 12.8836 27.936 12.6385 28.1267 12.619C28.2175 12.6087 28.3134 12.6651 28.3481 12.7523L28.2165 12.8129C28.4287 12.8518 28.5072 13.1822 28.3338 13.3114C28.3104 13.3319 28.2818 13.3483 28.2798 13.3801C28.2787 13.3986 28.29 13.4181 28.3042 13.4314C28.4287 13.5863 28.6235 13.652 28.7908 13.7577C28.9591 13.8592 29.1183 14.0387 29.0785 14.2296C29.0214 14.248 28.9673 14.2634 28.9102 14.2808C28.8469 14.3362 28.8867 14.445 28.9459 14.5086C29.004 14.5722 29.0805 14.6358 29.0785 14.724C29.0713 14.8184 28.9612 14.8769 28.8683 14.8646Z" fill="#E8EFF3"/>
<path d="M28.3405 24.459L28.1069 24.6036C28.1671 24.8847 27.9896 25.1976 27.7183 25.2879C27.5744 25.3361 27.3867 25.3484 27.3306 25.49C27.2827 25.61 27.3704 25.7403 27.3745 25.8695C27.3816 26.0829 27.1735 26.2286 27.0216 26.3773C26.8696 26.5261 26.7747 26.8174 26.9583 26.9251C27.0012 26.9498 27.0511 26.958 27.1001 26.9662C27.3051 26.998 27.5296 27.0185 27.706 26.9087C28.21 26.5938 27.8131 25.6264 28.312 25.3022C28.3823 25.2561 28.4701 25.2253 28.5129 25.1525C28.6353 24.935 28.2355 24.6867 28.3405 24.459Z" fill="#E8EFF3"/>
<path d="M13.3586 8.29688C13.2219 8.39638 13.0821 8.49076 12.9352 8.57591C12.8169 8.64464 12.7404 8.68362 12.6873 8.70619C12.4231 8.96881 12.1508 9.22014 11.8958 9.49302C11.6367 9.77102 11.3949 10.0624 11.147 10.3496C11.1429 10.3568 11.145 10.3558 11.1399 10.364C10.4115 11.6524 9.63727 12.9296 8.70898 14.0847C20.8716 20.6799 25.1396 27.5603 21.2388 32.1961C21.2469 32.193 21.2561 32.1889 21.2643 32.1858C24.3021 30.9117 26.3811 27.8721 26.1383 24.5699C25.7823 19.7228 21.6376 13.9924 13.3586 8.29688Z" fill="#F34E3A"/>
<path d="M13.4965 2.33531L13.4957 2.33546L11.5177 2.68219L11.3892 2.70472L11.2973 2.61223L10.6005 1.91157C10.4854 1.79578 10.2975 1.79509 10.1807 1.91176C10.0646 2.02867 10.0647 2.21979 10.1808 2.33661L10.3339 2.49049L10.6718 2.83031L10.1997 2.91301L9.32143 3.06689L9.19297 3.0894L9.10101 2.99692L8.52466 2.41732L8.52424 2.41689C8.40911 2.30056 8.22167 2.29995 8.10496 2.41732C7.98873 2.5342 7.98873 2.72547 8.10496 2.84235L8.10776 2.84517L8.10773 2.84519L8.13936 2.87802L8.46561 3.2167L8.00238 3.29772L5.70922 3.69883L5.58079 3.72129L5.48887 3.62884L3.76491 1.89516C3.22667 1.35387 2.60706 0.904268 1.92176 0.58768C1.39381 0.344515 0.858189 0.192429 0.457654 0.270543C0.364478 0.288791 0.288989 0.36386 0.270474 0.459477L0.0250329 0.411949M13.4965 2.33531L0.674412 2.11874C0.53456 1.83646 0.409353 1.53444 0.331664 1.24236C0.253352 0.947932 0.227872 0.68034 0.270508 0.459297L0.0250329 0.411949M13.4965 2.33531C13.6268 2.312 13.7618 2.35464 13.8568 2.44925M13.4965 2.33531L13.8568 2.44925M0.0250329 0.411949C-0.0800366 0.956675 0.161725 1.64707 0.450411 2.22975C0.7646 2.86373 1.1859 3.43718 1.6837 3.93882M0.0250329 0.411949C0.0627763 0.217037 0.21579 0.06316 0.409608 0.0252036L1.6837 3.93882M1.6837 3.93882L3.43418 5.69918L3.08446 7.71606C3.11686 7.73978 3.14789 7.76626 3.17722 7.79549L3.20876 7.82622L3.0343 8.00529L2.97987 7.99585L2.97937 7.99576L2.78798 7.96257L2.80786 7.84795C2.61288 7.77423 2.38468 7.81608 2.22741 7.97348C2.01319 8.18789 2.01319 8.53668 2.22741 8.75108L2.80376 9.33068L2.70294 9.9127L2.82743 10.0371L2.65075 10.2139L2.40442 10.1713L2.40793 10.151L2.40815 10.1498L2.43318 10.0052C2.21946 9.84763 1.91723 9.86625 1.72349 10.0611C1.51029 10.2755 1.51029 10.6243 1.72349 10.8387L2.42021 11.5393L2.07542 13.5285M1.6837 3.93882L14.034 2.27284C14.341 2.58265 14.2737 3.10173 13.8962 3.32023L12.5808 4.08317C12.5707 4.0711 12.5604 4.05904 12.55 4.04701L12.361 4.21067L12.4864 4.42693L12.5182 4.40849C12.6762 4.62486 12.7897 4.83748 12.8658 5.00253C12.8147 4.98073 12.7558 4.9539 12.6913 4.92165C12.6256 4.88877 12.5548 4.85055 12.4812 4.80665M1.6837 3.93882L1.86098 3.76254M1.6837 3.93882L1.86116 3.76272M2.07542 13.5285C2.03869 13.7418 2.10704 13.9603 2.25903 14.1132C2.5671 14.423 3.08327 14.3543 3.30055 13.9757M2.07542 13.5285L2.3218 13.5709M2.07542 13.5285L2.32174 13.5712L2.3218 13.5709M3.30055 13.9757L4.0593 12.6527C4.04654 12.6419 4.03381 12.6309 4.0211 12.6197L4.18599 12.4318L4.40285 12.5562L4.38318 12.5905C4.59745 12.7488 4.80824 12.8626 4.97215 12.939C4.95038 12.8874 4.92354 12.8278 4.89125 12.7625C4.85885 12.6971 4.82125 12.6266 4.77811 12.5534M3.30055 13.9757L3.08373 13.8513M3.30055 13.9757L3.08368 13.8514L3.08373 13.8513M4.77811 12.5534C4.87147 12.6094 4.96021 12.6561 5.03947 12.6943C5.08396 12.7157 5.1252 12.7344 5.16227 12.7503C5.04778 12.4998 4.84727 12.1399 4.53486 11.8245L4.99988 11.0148C4.98535 11.0017 4.97086 10.9883 4.95643 10.9748L5.12753 10.7925L5.34433 10.917L5.32064 10.9583C5.55981 11.1463 5.80084 11.2778 5.98353 11.3628C5.96159 11.3106 5.93447 11.2502 5.90175 11.1841C5.8698 11.1195 5.83279 11.0501 5.79041 10.978M4.77811 12.5534C4.67256 12.3743 4.53389 12.1788 4.35726 12.0005L4.22322 11.8652L4.31807 11.7L4.91074 10.668L5.06817 10.3939L5.29864 10.6102C5.45989 10.7616 5.63175 10.8831 5.79041 10.978M4.77811 12.5534C4.64052 12.471 4.49291 12.3685 4.35088 12.2439L4.12116 12.0423L3.96912 12.3075L3.08373 13.8513M5.79041 10.978C5.87286 11.0273 5.95175 11.0694 6.02373 11.1049C6.07869 11.132 6.12923 11.1549 6.17374 11.1741C6.05906 10.9224 5.8576 10.5604 5.54271 10.2437C5.52975 10.2293 5.51596 10.2171 5.50213 10.2048C5.4942 10.1977 5.48625 10.1906 5.47844 10.1832L6.23285 8.8682L6.18457 8.81964L6.36184 8.64336L6.57869 8.76777L6.54462 8.82717L8.58463 10.8787L7.96849 13.6557C7.87056 14.144 8.15109 14.6323 8.62135 14.7892M5.79041 10.978C5.6842 10.7973 5.54422 10.5998 5.36544 10.42L5.35705 10.4115L5.35726 10.4113C5.35583 10.4098 5.35274 10.4066 5.34381 10.3986L5.33661 10.3921L5.32777 10.3842C5.32146 10.3786 5.31374 10.3716 5.30553 10.3637L5.16426 10.2284L5.2616 10.0588L6.145 8.51896L6.30806 8.23473L6.53912 8.46709L8.7619 10.7024L8.85831 10.7994L8.82869 10.9328L8.21315 13.7071C8.14109 14.0724 8.35191 14.4357 8.7005 14.5521L8.62135 14.7892M8.62135 14.7892C9.09263 14.9462 9.6088 14.7215 9.82404 14.2619M8.62135 14.7892L8.70034 14.552C9.04668 14.6674 9.43097 14.505 9.59513 14.1612M9.82404 14.2619L10.6513 12.2359C11.1899 12.3251 11.7296 12.3169 11.9836 12.2441C11.9924 12.2496 12.0012 12.255 12.0098 12.2604C12.004 12.2506 11.998 12.2407 11.9919 12.2306C11.9844 12.2182 11.9767 12.2055 11.9688 12.1927C11.9667 12.1892 11.9645 12.1857 11.9624 12.1822L11.9048 12.0885L11.9218 12.0287L11.9302 11.9993M9.82404 14.2619L9.59764 14.1559C9.59681 14.1577 9.59597 14.1594 9.59513 14.1612M9.82404 14.2619L9.59259 14.1674L9.59513 14.1612M11.9302 11.9993L11.9615 11.9904L12.0213 11.9732L12.1156 12.0318C12.118 12.0333 12.1204 12.0348 12.1228 12.0363C12.1358 12.0444 12.1486 12.0522 12.1612 12.0599C12.1717 12.0664 12.1821 12.0727 12.1923 12.0789C12.1867 12.0698 12.1811 12.0606 12.1753 12.0512C12.2478 11.7968 12.2559 11.2542 12.1672 10.7115L14.1941 9.87438M11.9302 11.9993L11.9349 11.9828C11.9617 11.8886 11.9817 11.7163 11.9817 11.4895C11.9817 11.2675 11.9626 11.0096 11.9205 10.7518L11.8885 10.5561L12.0718 10.4804L14.0929 9.64568M11.9302 11.9993L11.9147 12.0038C11.8208 12.0307 11.6496 12.0508 11.4242 12.0508C11.2037 12.0508 10.9478 12.0316 10.6922 11.9893L10.4953 11.9566L10.4199 12.1414L9.59513 14.1612M14.1941 9.87438C14.2971 9.82617 14.3889 9.76051 14.4685 9.6805M14.1941 9.87438L14.0987 9.64331L14.0929 9.64568M14.1941 9.87438L14.0881 9.64795C14.0898 9.6472 14.0914 9.64644 14.0929 9.64568M14.4685 9.6805C14.7327 9.41378 14.8245 9.02703 14.7072 8.67106C14.5511 8.19712 14.0656 7.91501 13.58 8.01452M14.4685 9.6805L14.2912 9.50422C14.2912 9.50426 14.2912 9.50429 14.2911 9.50433M14.4685 9.6805L14.2909 9.50456C14.291 9.50448 14.2911 9.50441 14.2911 9.50433M13.58 8.01452L10.8186 8.63413L8.77708 6.58107L8.72029 6.61402L8.59483 6.39778L8.7721 6.2215L8.8184 6.26806L10.126 5.50939C10.135 5.51893 10.1435 5.52868 10.1519 5.53844C10.1625 5.55073 10.1732 5.56305 10.1851 5.57505C10.4993 5.89094 10.8583 6.09332 11.1085 6.20879C11.0894 6.164 11.0664 6.11313 11.0394 6.0578C11.0041 5.98558 10.9622 5.90644 10.9132 5.8237M13.58 8.01452L13.6302 8.25943C13.6309 8.25928 13.6316 8.25914 13.6323 8.259M13.58 8.01452L13.6348 8.25845L13.6323 8.259M10.9132 5.8237C10.9863 5.86726 11.0566 5.9052 11.1219 5.93788C11.1869 5.97042 11.2464 5.99746 11.2979 6.01937C11.2131 5.83551 11.0818 5.59256 10.8941 5.35123L10.8554 5.37371L10.7299 5.15753L10.9133 4.98762C10.926 5.0014 10.9386 5.01523 10.951 5.0291L11.7561 4.56151C12.0697 4.87511 12.4271 5.07659 12.6763 5.19184C12.6603 5.15442 12.6417 5.11276 12.6203 5.0678C12.5825 4.9886 12.5364 4.89995 12.4812 4.80665M10.9132 5.8237C10.8185 5.66375 10.6974 5.49033 10.5465 5.32743L10.3342 5.09825L10.6043 4.94135L11.6305 4.34533L11.7969 4.24872L11.9329 4.38474C12.1098 4.56168 12.3036 4.7007 12.4812 4.80665M10.9132 5.8237C10.7347 5.71724 10.5399 5.57726 10.3624 5.39877C10.3582 5.39457 10.3534 5.38918 10.3441 5.37843C10.3432 5.37739 10.3422 5.37625 10.3411 5.37503C10.333 5.36564 10.3207 5.35142 10.3075 5.33749L10.1715 5.19393L10.0005 5.29316L8.46936 6.18154L8.189 6.34421L8.41755 6.57406L10.6414 8.81041L10.7387 8.90829L10.8734 8.87807L13.6323 8.259M12.4812 4.80665C12.3989 4.6676 12.2966 4.51821 12.172 4.37432L11.9743 4.14597L12.2356 3.99441L13.7708 3.10397L13.771 3.10387C14.0054 2.96819 14.049 2.64369 13.8568 2.44925M13.8568 2.44925L1.86098 3.76254M13.6323 8.259C13.9921 8.18637 14.3533 8.39575 14.4698 8.74926L14.4698 8.74931C14.5575 9.01546 14.4894 9.30402 14.2911 9.50433M14.2911 9.50433C14.2326 9.56312 14.1664 9.61062 14.0929 9.64568M3.08373 13.8513C2.94832 14.0872 2.62775 14.1294 2.43631 13.9369C2.34195 13.842 2.29867 13.7052 2.3218 13.5709M2.3218 13.5709L2.66654 11.582L2.68861 11.4547L2.59748 11.3631L1.90076 10.6624C1.78453 10.5455 1.78453 10.3543 1.90076 10.2374C2.01747 10.12 2.20491 10.1206 2.32004 10.2369L2.32105 10.238L2.47407 10.3908L2.81486 10.7312L2.89708 10.2566L3.05009 9.37336L3.07215 9.24603L2.98104 9.1544L2.40469 8.5748L2.40426 8.57438C2.28758 8.45759 2.28757 8.26697 2.40426 8.15019C2.52083 8.03351 2.70824 8.03351 2.82481 8.15019L2.82479 8.1502L2.82721 8.15255L2.85985 8.18435L3.19959 8.51534L3.28063 8.048L3.6805 5.74189L3.70259 5.61454L3.61145 5.5229L1.86116 3.76272M1.86116 3.76272C1.8611 3.76266 1.86104 3.7626 1.86098 3.76254M1.86116 3.76272L0.674425 2.11877C0.975712 2.7267 1.38061 3.27844 1.86098 3.76254" stroke="#E9B02C" stroke-width="0.5"/>
<path d="M24.0867 28.5432C23.9959 29.1843 24.0031 29.1771 23.5869 30.4307C23.8256 29.5321 23.9286 29.3249 23.9847 28.5329C24.4754 25.0789 22.1353 20.7272 19.9655 18.3565C18.8791 17.0352 17.4092 15.5754 15.9974 14.407C14.7814 13.3862 14.2326 13.0262 13.2125 12.2937C12.9779 12.1398 12.9167 11.8116 13.0799 11.5859C13.2431 11.3499 13.5594 11.2884 13.794 11.4525C13.794 11.4628 13.8042 11.4628 13.8144 11.473C14.8151 12.2558 15.2486 12.5532 16.5584 13.7504C18.0488 15.1138 19.4106 16.6146 20.445 17.9769C22.6892 20.758 24.6233 24.7557 24.0867 28.5432Z" fill="#E9B02C"/>
</svg>
