<svg width="56" height="54" viewBox="0 0 56 54" fill="none" xmlns="http://www.w3.org/2000/svg">
<path d="M12.3098 25.963C12.0269 25.963 11.7441 26.0718 11.5319 26.2883C11.1167 26.7118 11.1284 27.387 11.5581 27.7963C12.9725 29.1441 15.274 29.1441 16.6885 27.7963C17.1181 27.387 17.1298 26.7118 16.7147 26.2883C16.2995 25.8648 15.6147 25.8533 15.1852 26.2626C14.5996 26.8205 13.647 26.8205 13.0614 26.2626C12.8515 26.0625 12.5806 25.963 12.3098 25.963Z" fill="white"/>
<path d="M38.5073 25.3821C38.2244 25.3821 37.9416 25.491 37.7294 25.7075C37.3143 26.131 37.3259 26.8061 37.7556 27.2155C39.1701 28.5633 41.4715 28.5633 42.886 27.2155C43.3157 26.8061 43.3273 26.131 42.9122 25.7075C42.497 25.284 41.8122 25.2724 41.3827 25.6818C40.7971 26.2396 39.8445 26.2396 39.2589 25.6818C39.049 25.4816 38.7781 25.3821 38.5073 25.3821Z" fill="white"/>
<path d="M26.0383 39.033C25.848 39.033 25.6578 39.1064 25.5151 39.2526C25.236 39.5384 25.2438 39.9941 25.5327 40.2703C26.4839 41.18 28.0316 41.18 28.9828 40.2703C29.2717 39.9941 29.2796 39.5384 29.0004 39.2526C28.7213 38.9667 28.2607 38.959 27.9719 39.2352C27.5781 39.6117 26.9375 39.6117 26.5437 39.2352C26.4026 39.1001 26.2203 39.033 26.0383 39.033Z" fill="white"/>
<path d="M55.3491 31.7634C55.4851 31.2223 55.1754 30.6691 54.6385 30.4943C52.0762 29.6597 49.0218 27.7781 49.0218 23.5532V21.3161C49.0218 17.8662 48.2203 15.1663 46.6395 13.2917C45.1096 11.4774 42.8855 10.5184 40.2076 10.5184C37.6421 10.5184 35.459 11.4737 33.8941 13.281C32.2582 15.1704 31.3934 17.9489 31.3934 21.3161V23.5532C31.3934 25.893 30.4612 27.7522 28.6215 29.086C28.1828 28.9995 27.7295 28.9533 27.2653 28.9533C24.307 28.9533 21.7759 30.793 20.7883 33.3728C20.4995 33.2928 18.9863 32.8908 18.5396 32.7617V32.0522C21.4296 30.5025 23.3957 27.4812 23.3957 24.0157V19.7803C23.3957 14.7383 19.2367 10.6362 14.1245 10.6362C9.01078 10.6362 4.85038 14.7383 4.85038 19.7803V24.0157C4.85038 27.4807 6.81641 30.5014 9.70672 32.0513V32.7616C9.25999 32.8906 8.79596 33.0144 8.3157 33.1423C4.65222 34.1161 0.0919412 35.3276 0 40.8402V50.1868C0 50.7755 0.484584 51.2532 1.08166 51.2532H15.7078V52.7697C15.7078 52.7722 15.7073 52.7748 15.7073 52.7774C15.7073 53.3665 16.1916 53.8439 16.789 53.8439H22.4029C23.0003 53.8439 23.4846 53.3665 23.4846 52.7774C23.4846 52.1884 23.0003 51.711 22.4029 51.711H17.871V51.072C17.884 50.2914 17.9889 49.6515 18.1771 49.1204C18.8575 47.1986 20.6184 46.6867 23.0164 45.9893C23.1289 45.9566 23.2427 45.9236 23.357 45.8901C23.9264 47.4282 25.4251 48.5293 27.1798 48.5293C29.0801 48.5293 30.6121 47.4614 31.1793 45.8925C31.2908 45.925 31.4018 45.9574 31.5118 45.9891C34.5729 46.8797 36.5956 47.4673 36.6573 51.0719V51.7109H32.1162C31.5188 51.7109 31.0346 52.1883 31.0346 52.7773C31.0346 53.3663 31.5188 53.8438 32.1162 53.8438H37.7394C38.3368 53.8438 38.821 53.3663 38.821 52.7773C38.821 52.7747 38.8206 52.772 38.8206 52.7693V51.253H53.2505C53.8479 51.253 54.3322 50.7756 54.3322 50.1866V40.8573C54.3322 40.8514 54.3322 40.8456 54.332 40.8397C54.2947 38.6062 53.5239 37.0789 52.3765 35.9874C53.9337 35.2677 54.7913 33.9825 55.3491 31.7634ZM40.2076 12.6513C42.2504 12.6513 43.8548 13.3255 44.976 14.6552C46.101 15.9894 46.7248 17.9418 46.838 20.4631C44.8346 20.8056 42.4765 20.5289 41.1728 17.987C40.7805 17.2237 39.6342 17.2227 39.2422 17.987C37.939 20.5279 35.5822 20.8054 33.5793 20.4635C33.8296 15.5537 36.2664 12.6513 40.2076 12.6513ZM33.5567 22.6177C34.0169 22.6809 34.4649 22.7128 34.8988 22.7128C37.0797 22.7128 38.9093 21.9193 40.2076 20.401C41.5058 21.9194 43.3353 22.7128 45.5165 22.7128C45.9504 22.7128 46.3983 22.6809 46.8586 22.6177V23.5533C46.8586 27.1692 43.8751 30.111 40.2077 30.111C36.5403 30.111 33.5568 27.1692 33.5568 23.5533V22.6177H33.5567ZM42.4618 31.9544V33.5475C42.4618 34.7714 41.4505 35.7671 40.2076 35.7671C38.9663 35.7671 37.9565 34.7714 37.9565 33.5475V31.9552C38.6753 32.1428 39.4296 32.2439 40.2076 32.2439C40.9867 32.2438 41.7419 32.1425 42.4618 31.9544ZM32.5388 27.8294C33.3127 29.1733 34.4393 30.2944 35.7931 31.0709V32.7616C35.3434 32.8916 34.8772 33.0155 34.3939 33.1439C34.1714 33.203 33.9455 33.2634 33.7188 33.3247C33.1699 31.929 32.1716 30.754 30.8993 29.975C31.5701 29.3345 32.1186 28.6169 32.5388 27.8294ZM22.8565 34.0137C23.565 32.2989 25.274 31.0863 27.2653 31.0863C29.5788 31.0863 31.51 32.7274 31.9361 34.8951C30.4944 34.2148 28.8906 33.8512 27.2646 33.8512C25.6379 33.8512 24.0337 34.2152 22.5922 34.8959C22.6516 34.5905 22.7403 34.2952 22.8565 34.0137ZM7.01381 19.7803C7.01381 15.9144 10.2037 12.7691 14.1247 12.7691C18.0439 12.7691 21.2325 15.9144 21.2325 19.7803V20.8838C18.389 20.9774 14.8056 20.6442 12.1633 18.861C11.6877 18.5401 11.0405 18.6431 10.6916 19.0951C9.77692 20.2801 8.6283 20.574 7.01392 20.7632V19.7803H7.01381ZM7.01381 24.0157V22.9099C8.75356 22.7181 10.3922 22.4048 11.7527 21.1196C14.7125 22.7719 18.3282 23.1053 21.2324 23.0179V24.0157C21.2324 27.8801 18.0438 31.0239 14.1245 31.0239C10.2037 31.0239 7.01381 27.8801 7.01381 24.0157ZM16.3762 32.8828V33.5379C16.3762 33.5411 16.3757 33.5442 16.3757 33.5474C16.3757 34.7713 15.3659 35.767 14.1245 35.767C12.8816 35.767 11.8704 34.7713 11.8704 33.5474C11.8704 33.5451 11.87 33.5429 11.87 33.5407V32.8822C12.5922 33.0606 13.3472 33.1567 14.1245 33.1567C14.9011 33.1568 15.6551 33.061 16.3762 32.8828ZM23.1117 43.7356C22.8749 43.807 22.638 43.8764 22.4043 43.9436C19.7348 44.7199 16.7581 45.5848 15.9306 49.1202H7.95205V44.8054C7.95205 44.2164 7.46779 43.7389 6.87039 43.7389C6.27298 43.7389 5.78872 44.2164 5.78872 44.8054V49.1202H2.16332V40.8668C2.22822 37.2301 4.74416 36.3002 8.87827 35.2017C9.22646 35.1089 9.58027 35.0144 9.93224 34.9164C10.516 36.6475 12.1742 37.9 14.1247 37.9C16.0738 37.9 17.7308 36.6475 18.3141 34.9163C18.6663 35.0143 20.0355 35.3809 20.3513 35.4694C20.3459 35.5718 20.3438 35.6752 20.3438 35.7787V37.2866C20.3438 39.5145 21.4319 41.4971 23.1117 42.7427V43.7356ZM29.2534 44.5144C29.2534 44.5157 29.2532 44.5169 29.2532 44.5182C29.2532 45.8085 28.1785 46.3962 27.1799 46.3962C26.1297 46.3962 25.2752 45.5537 25.2752 44.5182C25.2752 44.5172 25.2751 44.5162 25.2751 44.5152V43.8241C25.5379 43.902 25.8072 43.9659 26.0831 44.0118C26.4671 44.0779 26.8619 44.112 27.2653 44.112C27.5985 44.112 27.9262 44.0886 28.2464 44.0427C28.5904 43.9958 28.9268 43.9222 29.2534 43.8252V44.5144ZM29.8289 41.239C28.375 42.1946 26.1926 42.2424 24.7396 41.2614C23.4274 40.4479 22.5467 39.0203 22.5106 37.3903C25.3429 35.5297 29.1865 35.5298 32.0212 37.3907C31.9851 39.0047 31.1207 40.4216 29.8289 41.239ZM52.1689 49.12H48.5435V44.8054C48.5435 44.2164 48.0593 43.7389 47.4619 43.7389C46.8645 43.7389 46.3802 44.2164 46.3802 44.8054V49.12H38.5977C37.7694 45.5848 34.7932 44.7197 32.1241 43.9436C31.8905 43.8764 31.6536 43.807 31.4167 43.7356V42.7459C33.0987 41.4992 34.188 39.5156 34.188 37.2866V35.7968C34.188 35.6678 34.1836 35.5399 34.1764 35.4125C34.4376 35.3414 34.6991 35.2718 34.9566 35.2034C35.3073 35.1102 35.6634 35.0153 36.0181 34.9166C36.6016 36.6476 38.2585 37.9001 40.2075 37.9001C42.1578 37.9001 43.8159 36.6477 44.3998 34.9167C44.7518 35.0146 45.1055 35.109 45.4538 35.2016C49.5881 36.3003 52.1041 37.2303 52.1688 40.8665V49.12H52.1689ZM50.0383 34.4605C48.7462 33.8675 47.3245 33.4896 46.0168 33.142C45.536 33.0143 45.0721 32.891 44.6251 32.7617V31.0692C45.9745 30.2945 47.0979 29.1774 47.871 27.8386C49.1005 30.1364 51.2277 31.4405 52.9827 32.1606C52.4648 33.6455 51.7354 34.1784 50.0383 34.4605Z" fill="white"/>
<path d="M27.0147 13.5223C27.2242 13.7218 27.495 13.8215 27.7659 13.8215C28.0367 13.8215 28.3075 13.7218 28.5171 13.5223L34.241 8.07512C36.1327 6.27652 36.1878 3.29595 34.3631 1.43016C33.4818 0.530811 32.2939 0.0231718 31.0184 0.000775913C29.8052 -0.0205535 28.659 0.398462 27.7659 1.18413C26.8723 0.398356 25.7259 -0.0202335 24.5134 0.000775913C23.2379 0.0231718 22.0501 0.530918 21.1671 1.43176C19.3457 3.2983 19.4011 6.27855 21.2904 8.0748L27.0147 13.5223ZM22.7244 2.91234C23.2046 2.4223 23.8536 2.14566 24.552 2.13339C24.5682 2.13318 24.5843 2.13297 24.6005 2.13297C25.2805 2.13297 25.9194 2.38572 26.4047 2.84804L27.0149 3.42851C27.4339 3.82716 28.0979 3.82716 28.517 3.42851L29.1278 2.8475C29.624 2.37474 30.2801 2.12124 30.9798 2.13339C31.6782 2.14566 32.3272 2.4223 32.8067 2.9116C33.8027 3.92997 33.7725 5.55761 32.7391 6.54015L27.766 11.2728L22.7925 6.53983C21.7604 5.55857 21.7307 3.93061 22.7244 2.91234Z" fill="white"/>
<path d="M27.2599 51.7113C26.6625 51.7113 26.1782 52.1888 26.1782 52.7778C26.1782 53.3668 26.6625 53.8443 27.2599 53.8443H27.266C27.8634 53.8443 28.3447 53.3668 28.3447 52.7778C28.3447 52.1888 27.8573 51.7113 27.2599 51.7113Z" fill="white"/>
</svg>
