<svg width="50" height="54" viewBox="0 0 50 54" fill="none" xmlns="http://www.w3.org/2000/svg">
<path d="M4.33298 19.2245C6.7074 18.2284 8.89812 16.9511 10.8961 15.3827C11.2427 15.1105 11.2997 14.6128 11.0236 14.271C10.7473 13.9293 10.2426 13.8731 9.89607 14.1453C9.44096 14.5029 8.96648 14.8504 8.48591 15.1782C6.65936 16.4241 4.65201 17.4522 2.5197 18.2337C1.12997 18.7506 1.49318 20.797 2.98433 20.8068H13.3732V27.0962C10.5735 29.6062 7.05617 31.4435 3.34016 32.6031C1.88988 33.0574 2.21372 35.1947 3.74071 35.1981H5.77717V52.4178H0.802384C0.359254 52.4178 0 52.772 0 53.2089C0 53.6458 0.359254 54 0.802384 54H48.6245C49.6696 53.9694 49.7038 52.4621 48.6245 52.4178H44.5056V45.727C44.5056 45.2901 44.1463 44.9359 43.7032 44.9359C43.2601 44.9359 42.9008 45.2901 42.9008 45.727V52.4178H40.4402V42.9855C40.4402 40.6922 38.4908 38.7483 36.1608 38.7483C33.8011 38.7483 31.8814 40.6491 31.8814 42.9855V52.4178H29.4208V42.9929C29.4208 40.6886 27.487 38.7483 25.1414 38.7483C22.7817 38.7483 20.862 40.6524 20.862 42.9929V52.4178H18.2944V43.0014C18.2944 40.6957 16.3648 38.7483 14.015 38.7483C11.6553 38.7483 9.73559 40.6562 9.73559 43.0014V52.4178H7.38193V35.198H42.9008V42.5804C42.9008 43.0173 43.2601 43.3715 43.7032 43.3715C44.1463 43.3715 44.5056 43.0173 44.5056 42.5804V35.198H45.6863C47.2122 35.1944 47.5382 33.0583 46.0868 32.603C42.3717 31.4438 38.8525 29.6054 36.0538 27.0961V20.8067H46.4426C47.9283 20.8024 48.2986 18.7467 46.9074 18.2337C42.7042 16.6976 38.9421 14.1686 36.0539 10.8336V5.72677C36.0539 4.99714 35.4518 4.40349 34.7118 4.40349H28.2426C28.2278 3.4666 27.8332 2.57506 27.153 1.95039L25.2604 0.212257C24.9523 -0.0707522 24.4747 -0.0707522 24.1666 0.212257L22.274 1.9505C21.5939 2.57517 21.1992 3.4666 21.1843 4.4036H14.7152C13.9752 4.4036 13.3731 4.99714 13.3731 5.72687V10.8362C12.9349 11.3406 12.4738 11.833 11.9959 12.3015C11.6816 12.6095 11.6803 13.1104 11.9928 13.4202C12.3054 13.7301 12.8133 13.7314 13.1274 13.4233C13.6271 12.9334 14.1113 12.4197 14.5703 11.8926H34.8563C37.6208 15.073 41.1575 17.58 45.0939 19.2245H4.33298ZM23.3678 3.10827L24.7135 1.87244L26.0593 3.10827C26.4149 3.43485 26.6243 3.90445 26.6385 4.40349H22.7886C22.8028 3.90445 23.0122 3.43485 23.3678 3.10827ZM14.9779 10.3104V5.98572H34.4491V10.3104H14.9779ZM21.9319 26.6349V20.8067H27.4951V26.6349H21.9319ZM34.4491 26.6317H29.0999V20.8066H34.4491V26.6317ZM20.3272 20.8067V26.6349H14.9779V20.8067H20.3272ZM34.9142 28.2172C37.4921 30.5486 40.7538 32.3937 44.1364 33.6158H43.7095C43.7043 33.6151 6.58062 33.6151 6.57345 33.6158H5.29071C8.6726 32.3941 11.9356 30.5482 14.5129 28.2172H34.9142ZM33.4863 42.9854C33.4863 41.5214 34.6861 40.3304 36.1609 40.3304C37.604 40.3011 38.8657 41.5655 38.8355 42.9854V52.4177H33.4863V42.9854ZM22.4669 42.9928C22.4669 41.5248 23.6667 40.3304 25.1415 40.3304C26.5865 40.3014 27.8467 41.5707 27.8161 42.9928V52.4177H22.4669V42.9928ZM11.3405 43.0013C11.3405 41.5286 12.5403 40.3304 14.0151 40.3304C15.4627 40.302 16.7207 41.576 16.6897 43.0013V52.4177H11.3405V43.0013Z" fill="white"/>
</svg>
