<svg width="37" height="54" viewBox="0 0 37 54" fill="none" xmlns="http://www.w3.org/2000/svg">
<path d="M32.7559 29.055C32.7509 29.0529 32.7458 29.0509 32.7404 29.0488L31.8211 28.6986V24.8218H34.7929C35.9664 24.8218 36.9208 23.8829 36.9208 22.7289V19.3655C36.9208 18.2115 35.9664 17.2726 34.7929 17.2726H28.2371C29.1295 16.3744 29.4256 15.0771 29.047 13.9058C30.5957 13.7155 31.3043 11.8413 30.1857 10.7018L28.0117 8.48776V8.32132C28.0117 5.54411 26.7688 2.92799 24.6015 1.14409C23.7048 0.406219 22.5544 0 21.3616 0C20.7117 0 16.3302 0 15.6446 0C14.4519 0 13.3015 0.406219 12.4048 1.1445C10.2421 2.9247 8.99998 5.5334 8.99495 8.30443L6.64047 10.7018C5.51934 11.8438 6.2334 13.727 7.79342 13.9075C7.39514 15.0404 7.68579 16.3637 8.58914 17.273H2.20707C1.03401 17.273 0.0795717 18.2115 0.0795717 19.3659V22.7289C0.0795717 23.8829 1.03359 24.8218 2.20707 24.8218H5.17886V28.6982L4.25918 29.0492C4.25415 29.0513 4.24913 29.0529 4.2441 29.055C4.07114 29.125 0 30.8253 0 35.5022V51.9813C0 53.0945 0.920938 54 2.05253 54H16.6238C17.0677 54 17.4279 53.6461 17.4279 53.209C17.4279 52.7719 17.0677 52.418 16.6238 52.418H8.06899V49.1938C11.4592 48.5267 13.9598 45.5893 13.9598 42.1183V38.9073C14.4301 38.6168 14.7446 38.1035 14.7446 37.518V35.9265C14.7446 35.3411 14.4301 34.8278 13.9598 34.5373V32.8515C16.8047 34.2786 20.1002 34.3264 23.0402 32.8519V34.5427C22.5749 34.8339 22.2646 35.3448 22.2646 35.9265V37.5176C22.2646 38.0993 22.5749 38.6102 23.0402 38.9015V42.1183C23.0402 45.593 25.5446 48.5272 28.931 49.1938V52.418H20.3762C19.9319 52.418 19.5721 52.7719 19.5721 53.209C19.5721 53.6457 19.9319 54 20.3762 54H34.9475C36.0791 54 37 53.094 37 51.9809C37 50.9084 37 43.1017 37 41.4142C37 40.9775 36.6398 40.6232 36.1959 40.6232C35.7516 40.6232 35.3918 40.9775 35.3918 41.4142V44.1053H30.5396V40.8259C30.5396 40.3888 30.1794 40.0349 29.7351 40.0349C29.2912 40.0349 28.931 40.3888 28.931 40.8259V43.0926C28.7618 42.8409 28.6638 42.5418 28.6638 42.2266V38.9171C29.1438 38.6288 29.4658 38.1101 29.4658 37.5176V35.9265C29.4658 35.3341 29.1438 34.8154 28.6638 34.527V29.1922L32.1491 30.52C32.2923 30.5806 35.3918 31.9393 35.3918 35.5018V37.7228C35.3918 38.1595 35.7516 38.5138 36.1959 38.5138C36.6398 38.5138 37 38.1595 37 37.7228V35.5018C37 30.8253 32.9293 29.125 32.7559 29.055ZM13.1364 35.9265V37.5176C13.1364 37.5485 13.1117 37.5737 13.0807 37.5757C9.46568 37.5765 10.2145 37.5765 9.21817 37.5765L9.2077 37.5757C9.17671 37.5737 9.152 37.5485 9.152 37.5176V35.9265C9.152 35.8956 9.17671 35.8705 9.20812 35.8684L9.21817 35.8676L13.0791 35.8684C13.1109 35.8697 13.1364 35.8952 13.1364 35.9265ZM9.94437 34.2856V28.5779C11.5136 27.9793 10.9449 28.196 12.3512 27.66V34.2856H9.94437ZM12.3893 17.3162V13.9223H24.4369V17.2516C24.4369 20.5516 21.6343 23.328 18.1076 23.1347C14.7044 22.9448 12.3893 20.2669 12.3893 17.3162ZM9.59844 13.9223H10.7807V16.6933C10.4331 16.6377 10.1152 16.4956 9.85265 16.2735C9.20268 15.7235 8.96438 14.703 9.59844 13.9223ZM26.974 16.2731C26.7105 16.4956 26.3931 16.6377 26.0455 16.6933V13.9223H27.2835C27.7977 14.6556 27.678 15.6769 26.974 16.2731ZM13.9598 27.0461C14.067 27.0045 14.2195 26.9308 14.3514 26.8488C15.6296 26.0557 15.4704 24.8128 15.4704 24.1614C17.239 24.8618 19.4917 24.9841 21.5183 24.1116V24.8634C21.5183 25.825 22.1322 26.7034 23.0402 27.0499V27.0857C20.8268 30.1735 16.1736 30.174 13.9598 27.0861V27.0461ZM30.213 28.086C29.4181 27.7832 24.4595 25.8942 23.6223 25.5753C23.3396 25.4674 23.1265 25.205 23.1265 24.8218H30.213V28.086ZM35.3122 19.3655V22.7289C35.3122 23.0058 35.0744 23.2398 34.7929 23.2398C32.8258 23.2398 24.3661 23.2398 23.1265 23.2398V23.1698C24.5387 22.0908 25.5124 20.5611 25.8805 18.855H34.7929C35.0744 18.855 35.3122 19.0886 35.3122 19.3655ZM26.3973 8.01645H23.8213C23.5185 5.62692 22.9045 3.33051 22.1398 1.66772C23.9783 2.076 26.2675 4.72838 26.3973 8.01645ZM20.2962 1.58203C21.1326 3.01575 21.8554 5.46419 22.1997 8.01645H14.6249C14.9662 5.46048 15.6874 3.01204 16.5241 1.58203H20.2962ZM14.6554 1.72169C13.9024 3.3783 13.3006 5.65082 13.0041 8.01645H10.609C10.7342 4.84167 12.9036 2.22556 14.6554 1.72169ZM7.79761 11.8014L9.95986 9.59889H26.8663L29.029 11.8014C29.2279 12.0041 29.0839 12.3403 28.7962 12.3403C26.52 12.3403 10.6995 12.3403 8.03004 12.3403C7.74316 12.3403 7.59742 12.0045 7.79761 11.8014ZM1.68776 22.7289V19.3655C1.68776 19.0886 1.92563 18.855 2.20707 18.855H10.9449C11.3247 20.6331 12.3566 22.1868 13.7965 23.2394C12.5895 23.2394 4.04601 23.2394 2.20707 23.2394C1.92522 23.2398 1.68776 23.0058 1.68776 22.7289ZM6.78705 24.8218H13.8618C13.8618 25.2033 13.6503 25.4674 13.3664 25.5758C11.0148 26.4727 9.28476 27.1322 6.78705 28.0848V24.8218ZM4.85094 30.5204L8.33618 29.1909V34.5328C7.86168 34.822 7.54382 35.3378 7.54382 35.9265V37.5176C7.54382 38.1064 7.86126 38.6222 8.33618 38.9118V42.2266C8.33618 42.5418 8.23818 42.8409 8.06899 43.0926V41.3899C8.06899 40.9528 7.70882 40.5989 7.26448 40.5989C6.82055 40.5989 6.46038 40.9528 6.46038 41.3899V44.1053H1.60819V35.5018C1.60819 31.9401 4.66374 30.5987 4.85094 30.5204ZM2.05253 52.418C1.80753 52.418 1.60819 52.2219 1.60819 51.9809V45.6877H6.46038V52.418H2.05253ZM12.3516 42.1183C12.3516 44.7336 10.5634 46.9435 8.06899 47.5738V45.1011C9.19891 44.5984 9.94437 43.4923 9.94437 42.2266V39.1586H12.3516V42.1183ZM13.9598 31.0334V29.3904C16.5894 31.515 20.4068 31.5179 23.0402 29.3904V31.0338C20.2049 32.7995 16.7934 32.7979 13.9598 31.0334ZM27.8028 35.8689H27.8032C27.8333 35.8717 27.8572 35.896 27.8572 35.9265V37.5176C27.8572 37.5489 27.8321 37.5741 27.8007 37.5761C27.799 37.5761 27.7969 37.5761 27.7952 37.5761L27.7869 37.5765L23.9306 37.5761C23.8987 37.5749 23.8732 37.5493 23.8732 37.5176V35.9265C23.8732 35.8944 23.8996 35.868 23.9322 35.868L27.7869 35.8676L27.8028 35.8689ZM35.3918 51.9809C35.3918 52.0113 35.3885 52.0406 35.3826 52.069C35.3411 52.268 35.1619 52.418 34.9475 52.418H30.5396C30.5396 51.4337 30.5396 46.6703 30.5396 45.6877H35.3918V51.9809ZM28.931 45.1011V47.5738C26.4366 46.9435 24.6484 44.7336 24.6484 42.1183V39.1586H27.0556V42.2266C27.0556 43.4923 27.8011 44.5984 28.931 45.1011ZM27.0556 28.58V34.2856H24.6484C24.6484 33.6544 24.6484 28.4152 24.6484 27.6629C24.9181 27.7655 26.8073 28.4852 27.0556 28.58Z" fill="white"/>
</svg>
